<svg width="16" height="16" viewBox="0 0 16 16" fill="none" xmlns="http://www.w3.org/2000/svg">
<path d="M9.21965 4.21969C9.51254 3.92678 9.98741 3.92677 10.2803 4.21965L13.7678 7.70694L13.7802 7.71906C13.9279 7.8667 14.0011 8.06059 13.9999 8.25409C13.9987 8.44454 13.9255 8.63465 13.7802 8.77996L13.7679 8.79204L10.2803 12.2794C9.98741 12.5723 9.51254 12.5722 9.21965 12.2793C8.92677 11.9864 8.92678 11.5116 9.21969 11.2187L11.439 8.99951H2.75C2.33579 8.99951 2 8.66373 2 8.24951C2 7.8353 2.33579 7.49951 2.75 7.49951H11.439L9.21969 5.28035C8.92678 4.98746 8.92677 4.51259 9.21965 4.21969Z" fill="#F7F7F7"/>
</svg>
